<mxfile modified="2020-08-28T07:57:29.333Z" host="app.diagrams.net" agent="5.0 (Macintosh; Intel Mac OS X 10_14_6) AppleWebKit/537.36 (KHTML, like Gecko) Chrome/84.0.4147.125 Safari/537.36" etag="BPar7m7lLRjsk7ONZBcP" version="13.5.5" type="github">
  <diagram id="Ht1M8jgEwFfnCIfOTk4-" name="Page-1">
    <mxGraphModel dx="946" dy="523" grid="1" gridSize="10" guides="1" tooltips="1" connect="1" arrows="1" fold="1" page="1" pageScale="1" pageWidth="827" pageHeight="1169" math="0" shadow="0">
      <root>
        <mxCell id="0" />
        <mxCell id="1" parent="0" />
        <mxCell id="UEzPUAAOIrF-is8g5C7q-2" value="AWS Cloud" style="points=[[0,0],[0.25,0],[0.5,0],[0.75,0],[1,0],[1,0.25],[1,0.5],[1,0.75],[1,1],[0.75,1],[0.5,1],[0.25,1],[0,1],[0,0.75],[0,0.5],[0,0.25]];outlineConnect=0;gradientColor=none;html=1;whiteSpace=wrap;fontSize=12;fontStyle=0;shape=mxgraph.aws4.group;grIcon=mxgraph.aws4.group_aws_cloud_alt;strokeColor=#232F3E;fillColor=none;verticalAlign=top;align=left;spacingLeft=30;fontColor=#232F3E;dashed=0;" parent="1" vertex="1">
          <mxGeometry x="150" y="181.5" width="926" height="498.5" as="geometry" />
        </mxCell>
        <mxCell id="TWgagcZdgVCgy9wzKNXQ-3" value="Region" style="points=[[0,0],[0.25,0],[0.5,0],[0.75,0],[1,0],[1,0.25],[1,0.5],[1,0.75],[1,1],[0.75,1],[0.5,1],[0.25,1],[0,1],[0,0.75],[0,0.5],[0,0.25]];outlineConnect=0;gradientColor=none;html=1;whiteSpace=wrap;fontSize=12;fontStyle=0;shape=mxgraph.aws4.group;grIcon=mxgraph.aws4.group_region;strokeColor=#147EBA;fillColor=none;verticalAlign=top;align=left;spacingLeft=30;fontColor=#147EBA;dashed=0;" vertex="1" parent="1">
          <mxGeometry x="300" y="202" width="740" height="268" as="geometry" />
        </mxCell>
        <mxCell id="UEzPUAAOIrF-is8g5C7q-59" style="edgeStyle=orthogonalEdgeStyle;rounded=0;orthogonalLoop=1;jettySize=auto;html=1;endArrow=open;endFill=0;strokeWidth=2;strokeColor=#545B64;startArrow=none;" parent="1" target="TWgagcZdgVCgy9wzKNXQ-2" edge="1">
          <mxGeometry relative="1" as="geometry">
            <mxPoint x="104" y="341" as="sourcePoint" />
            <mxPoint x="200" y="367" as="targetPoint" />
          </mxGeometry>
        </mxCell>
        <mxCell id="UEzPUAAOIrF-is8g5C7q-60" style="rounded=1;orthogonalLoop=1;jettySize=auto;html=1;endArrow=open;endFill=0;strokeWidth=2;strokeColor=#545B64;startArrow=none;edgeStyle=elbowEdgeStyle;" parent="1" source="TWgagcZdgVCgy9wzKNXQ-2" target="TWgagcZdgVCgy9wzKNXQ-1" edge="1">
          <mxGeometry relative="1" as="geometry">
            <mxPoint x="280" y="305" as="sourcePoint" />
            <mxPoint x="360" y="305" as="targetPoint" />
          </mxGeometry>
        </mxCell>
        <mxCell id="UEzPUAAOIrF-is8g5C7q-73" style="edgeStyle=orthogonalEdgeStyle;rounded=0;orthogonalLoop=1;jettySize=auto;html=1;endArrow=open;endFill=0;strokeWidth=2;strokeColor=#545B64;startArrow=none;" parent="1" source="TWgagcZdgVCgy9wzKNXQ-1" target="TWgagcZdgVCgy9wzKNXQ-8" edge="1">
          <mxGeometry relative="1" as="geometry">
            <Array as="points">
              <mxPoint x="479" y="305" />
            </Array>
            <mxPoint x="410" y="70" as="sourcePoint" />
            <mxPoint x="440" y="279" as="targetPoint" />
          </mxGeometry>
        </mxCell>
        <mxCell id="UEzPUAAOIrF-is8g5C7q-63" value="" style="edgeStyle=orthogonalEdgeStyle;rounded=0;orthogonalLoop=1;jettySize=auto;html=1;endArrow=open;endFill=0;strokeWidth=2;strokeColor=#545B64;startArrow=none;" parent="1" source="TWgagcZdgVCgy9wzKNXQ-8" target="UEzPUAAOIrF-is8g5C7q-45" edge="1">
          <mxGeometry relative="1" as="geometry">
            <mxPoint x="759" y="319" as="targetPoint" />
            <mxPoint x="518" y="279" as="sourcePoint" />
          </mxGeometry>
        </mxCell>
        <mxCell id="UEzPUAAOIrF-is8g5C7q-65" style="edgeStyle=orthogonalEdgeStyle;rounded=0;orthogonalLoop=1;jettySize=auto;html=1;endArrow=open;endFill=0;strokeWidth=2;strokeColor=#545B64;startArrow=none;" parent="1" source="TWgagcZdgVCgy9wzKNXQ-12" edge="1" target="TWgagcZdgVCgy9wzKNXQ-14">
          <mxGeometry relative="1" as="geometry">
            <mxPoint x="848" y="278.5" as="targetPoint" />
            <mxPoint x="790" y="278.5" as="sourcePoint" />
            <Array as="points">
              <mxPoint x="759" y="389" />
            </Array>
          </mxGeometry>
        </mxCell>
        <mxCell id="-QjtrjUzRDEMRZ5MF8oH-47" value="ありがちな構成" style="text;html=1;resizable=0;points=[];autosize=1;align=left;verticalAlign=top;spacingTop=-4;fontSize=30;fontStyle=1" parent="1" vertex="1">
          <mxGeometry x="12" y="65.5" width="230" height="40" as="geometry" />
        </mxCell>
        <mxCell id="-QjtrjUzRDEMRZ5MF8oH-48" value="各種AWSサービスは、各々のロググループに対して所定のCloudWatchメトリクスを発行する。" style="text;html=1;resizable=0;points=[];autosize=1;align=left;verticalAlign=top;spacingTop=-4;fontSize=16" parent="1" vertex="1">
          <mxGeometry x="12" y="115.5" width="690" height="20" as="geometry" />
        </mxCell>
        <mxCell id="SCVMTBWpLvtzJIhz15lM-1" value="" style="line;strokeWidth=2;html=1;fontSize=14;" parent="1" vertex="1">
          <mxGeometry x="8" y="140.5" width="1060" height="10" as="geometry" />
        </mxCell>
        <mxCell id="7OVz4w7n9kzEPWy-4BBC-4" value="1" style="rounded=1;whiteSpace=wrap;html=1;fillColor=#007CBD;strokeColor=none;fontColor=#FFFFFF;fontStyle=1;fontSize=22;labelBackgroundColor=none;" parent="1" vertex="1">
          <mxGeometry x="1124.5" y="64" width="40" height="38" as="geometry" />
        </mxCell>
        <mxCell id="7OVz4w7n9kzEPWy-4BBC-5" value="2" style="rounded=1;whiteSpace=wrap;html=1;fillColor=#007CBD;strokeColor=none;fontColor=#FFFFFF;fontStyle=1;fontSize=22;labelBackgroundColor=none;" parent="1" vertex="1">
          <mxGeometry x="1124.5" y="186" width="40" height="38" as="geometry" />
        </mxCell>
        <mxCell id="7OVz4w7n9kzEPWy-4BBC-6" value="3" style="rounded=1;whiteSpace=wrap;html=1;fillColor=#007CBD;strokeColor=none;fontColor=#FFFFFF;fontStyle=1;fontSize=22;labelBackgroundColor=none;" parent="1" vertex="1">
          <mxGeometry x="1124.5" y="306" width="40" height="38" as="geometry" />
        </mxCell>
        <mxCell id="7OVz4w7n9kzEPWy-4BBC-11" value="8" style="rounded=1;whiteSpace=wrap;html=1;fillColor=#007CBD;strokeColor=none;fontColor=#FFFFFF;fontStyle=1;fontSize=22;labelBackgroundColor=none;" parent="1" vertex="1">
          <mxGeometry x="1124.5" y="886" width="40" height="38" as="geometry" />
        </mxCell>
        <mxCell id="7OVz4w7n9kzEPWy-4BBC-13" value="&lt;span&gt;Lorem ipsum dolor sit amet, consectetur adipiscing elit, sed do eiusmod tempor incididunt ut labore et dolore magna aliqua. Ut enim ad minim veniam, quis nostrud exercitation ullamco laboris nisi ut aliquip ex ea commodo consequat. Duis aute irure dolor in reprehenderit in voluptate velit esse cillum dolore eu fugiat nulla pariatur. Excepteur sint occaecat cupidatat non proident, sunt in culpa qui officia deserunt mollit anim id est laborum.&lt;/span&gt;&lt;br&gt;" style="text;html=1;align=left;verticalAlign=top;spacingTop=-4;fontSize=14;labelBackgroundColor=none;whiteSpace=wrap;" parent="1" vertex="1">
          <mxGeometry x="1176" y="63.5" width="449" height="118" as="geometry" />
        </mxCell>
        <mxCell id="7OVz4w7n9kzEPWy-4BBC-14" value="&lt;span&gt;Lorem ipsum dolor sit amet, consectetur adipiscing elit, sed do eiusmod tempor incididunt ut labore et dolore magna aliqua. Ut enim ad minim veniam, quis nostrud exercitation ullamco laboris nisi ut aliquip ex ea commodo consequat. Duis aute irure dolor in reprehenderit in voluptate velit esse cillum dolore eu fugiat nulla pariatur. Excepteur sint occaecat cupidatat non proident, sunt in culpa qui officia deserunt mollit anim id est laborum.&lt;/span&gt;&lt;br&gt;" style="text;html=1;align=left;verticalAlign=top;spacingTop=-4;fontSize=14;labelBackgroundColor=none;whiteSpace=wrap;" parent="1" vertex="1">
          <mxGeometry x="1175.5" y="186.5" width="450" height="115" as="geometry" />
        </mxCell>
        <mxCell id="7OVz4w7n9kzEPWy-4BBC-20" value="&lt;span&gt;Lorem ipsum dolor sit amet, consectetur adipiscing elit, sed do eiusmod tempor incididunt ut labore et dolore magna aliqua. Ut enim ad minim veniam, quis nostrud exercitation ullamco laboris nisi ut aliquip ex ea commodo consequat. Duis aute irure dolor in reprehenderit in voluptate velit esse cillum dolore eu fugiat nulla pariatur. Excepteur sint occaecat cupidatat non proident, sunt in culpa qui officia deserunt mollit anim id est laborum.&lt;/span&gt;&lt;br&gt;" style="text;html=1;align=left;verticalAlign=top;spacingTop=-4;fontSize=14;labelBackgroundColor=none;whiteSpace=wrap;" parent="1" vertex="1">
          <mxGeometry x="1176" y="887.5" width="449" height="124" as="geometry" />
        </mxCell>
        <mxCell id="UEzPUAAOIrF-is8g5C7q-37" value="9" style="rounded=1;whiteSpace=wrap;html=1;fillColor=#007CBD;strokeColor=none;fontColor=#FFFFFF;fontStyle=1;fontSize=22;labelBackgroundColor=none;" parent="1" vertex="1">
          <mxGeometry x="1124.5" y="1021" width="40" height="38" as="geometry" />
        </mxCell>
        <mxCell id="UEzPUAAOIrF-is8g5C7q-38" value="&lt;span&gt;Lorem ipsum dolor sit amet, consectetur adipiscing elit, sed do eiusmod tempor incididunt ut labore et dolore magna aliqua. Ut enim ad minim veniam, quis nostrud exercitation ullamco laboris nisi ut aliquip ex ea commodo consequat. Duis aute irure dolor in reprehenderit in voluptate velit esse cillum dolore eu fugiat nulla pariatur. Excepteur sint occaecat cupidatat non proident, sunt in culpa qui officia deserunt mollit anim id est laborum.&lt;/span&gt;&lt;br&gt;" style="text;html=1;align=left;verticalAlign=top;spacingTop=-4;fontSize=14;labelBackgroundColor=none;whiteSpace=wrap;" parent="1" vertex="1">
          <mxGeometry x="1176" y="1022.5" width="449" height="124" as="geometry" />
        </mxCell>
        <mxCell id="UEzPUAAOIrF-is8g5C7q-45" value="" style="outlineConnect=0;fontColor=#232F3E;gradientColor=#60A337;gradientDirection=north;fillColor=#277116;strokeColor=#ffffff;dashed=0;verticalLabelPosition=bottom;verticalAlign=top;align=center;html=1;fontSize=12;fontStyle=0;aspect=fixed;shape=mxgraph.aws4.resourceIcon;resIcon=mxgraph.aws4.s3;labelBackgroundColor=#ffffff;" parent="1" vertex="1">
          <mxGeometry x="558" y="240" width="78" height="78" as="geometry" />
        </mxCell>
        <mxCell id="TWgagcZdgVCgy9wzKNXQ-1" value="" style="outlineConnect=0;fontColor=#232F3E;gradientColor=#945DF2;gradientDirection=north;fillColor=#5A30B5;strokeColor=#ffffff;dashed=0;verticalLabelPosition=bottom;verticalAlign=top;align=center;html=1;fontSize=12;fontStyle=0;aspect=fixed;shape=mxgraph.aws4.resourceIcon;resIcon=mxgraph.aws4.api_gateway;" vertex="1" parent="1">
          <mxGeometry x="320" y="240" width="78" height="78" as="geometry" />
        </mxCell>
        <mxCell id="TWgagcZdgVCgy9wzKNXQ-2" value="" style="outlineConnect=0;fontColor=#232F3E;gradientColor=#945DF2;gradientDirection=north;fillColor=#5A30B5;strokeColor=#ffffff;dashed=0;verticalLabelPosition=bottom;verticalAlign=top;align=center;html=1;fontSize=12;fontStyle=0;aspect=fixed;shape=mxgraph.aws4.resourceIcon;resIcon=mxgraph.aws4.cloudfront;" vertex="1" parent="1">
          <mxGeometry x="184" y="302" width="78" height="78" as="geometry" />
        </mxCell>
        <mxCell id="TWgagcZdgVCgy9wzKNXQ-8" value="" style="outlineConnect=0;fontColor=#232F3E;gradientColor=#F78E04;gradientDirection=north;fillColor=#D05C17;strokeColor=#ffffff;dashed=0;verticalLabelPosition=bottom;verticalAlign=top;align=center;html=1;fontSize=12;fontStyle=0;aspect=fixed;shape=mxgraph.aws4.resourceIcon;resIcon=mxgraph.aws4.lambda;" vertex="1" parent="1">
          <mxGeometry x="440" y="240" width="78" height="78" as="geometry" />
        </mxCell>
        <mxCell id="TWgagcZdgVCgy9wzKNXQ-11" style="rounded=0;orthogonalLoop=1;jettySize=auto;html=1;endArrow=open;endFill=0;strokeWidth=2;strokeColor=#545B64;startArrow=none;dashed=1;" edge="1" parent="1" source="TWgagcZdgVCgy9wzKNXQ-12" target="UEzPUAAOIrF-is8g5C7q-45">
          <mxGeometry relative="1" as="geometry">
            <mxPoint x="654" y="318" as="targetPoint" />
            <mxPoint x="654" y="162" as="sourcePoint" />
          </mxGeometry>
        </mxCell>
        <mxCell id="TWgagcZdgVCgy9wzKNXQ-12" value="" style="outlineConnect=0;fontColor=#232F3E;gradientColor=#4D72F3;gradientDirection=north;fillColor=#3334B9;strokeColor=#ffffff;dashed=0;verticalLabelPosition=bottom;verticalAlign=top;align=center;html=1;fontSize=12;fontStyle=0;aspect=fixed;shape=mxgraph.aws4.resourceIcon;resIcon=mxgraph.aws4.codebuild;" vertex="1" parent="1">
          <mxGeometry x="720" y="360" width="78" height="78" as="geometry" />
        </mxCell>
        <mxCell id="TWgagcZdgVCgy9wzKNXQ-14" value="" style="outlineConnect=0;fontColor=#232F3E;gradientColor=#60A337;gradientDirection=north;fillColor=#277116;strokeColor=#ffffff;dashed=0;verticalLabelPosition=bottom;verticalAlign=top;align=center;html=1;fontSize=12;fontStyle=0;aspect=fixed;shape=mxgraph.aws4.resourceIcon;resIcon=mxgraph.aws4.s3;labelBackgroundColor=#ffffff;" vertex="1" parent="1">
          <mxGeometry x="558" y="360" width="78" height="78" as="geometry" />
        </mxCell>
        <mxCell id="TWgagcZdgVCgy9wzKNXQ-9" value="" style="outlineConnect=0;fontColor=#232F3E;gradientColor=none;fillColor=#BC1356;strokeColor=none;dashed=0;verticalLabelPosition=bottom;verticalAlign=top;align=center;html=1;fontSize=12;fontStyle=0;aspect=fixed;pointerEvents=1;shape=mxgraph.aws4.event_time_based;" vertex="1" parent="1">
          <mxGeometry x="779" y="320" width="48" height="48" as="geometry" />
        </mxCell>
        <mxCell id="TWgagcZdgVCgy9wzKNXQ-15" style="rounded=1;orthogonalLoop=1;jettySize=auto;html=1;endArrow=open;endFill=0;strokeWidth=2;strokeColor=#545B64;startArrow=none;edgeStyle=orthogonalEdgeStyle;" edge="1" parent="1" source="TWgagcZdgVCgy9wzKNXQ-2" target="TWgagcZdgVCgy9wzKNXQ-14">
          <mxGeometry relative="1" as="geometry">
            <mxPoint x="272" y="333.22058823529414" as="sourcePoint" />
            <mxPoint x="330" y="306.77941176470586" as="targetPoint" />
            <Array as="points">
              <mxPoint x="290" y="341" />
              <mxPoint x="290" y="399" />
            </Array>
          </mxGeometry>
        </mxCell>
        <mxCell id="TWgagcZdgVCgy9wzKNXQ-17" style="edgeStyle=orthogonalEdgeStyle;rounded=1;orthogonalLoop=1;jettySize=auto;html=1;exitX=0.5;exitY=1;exitDx=0;exitDy=0;dashed=1;" edge="1" parent="1" source="UEzPUAAOIrF-is8g5C7q-2" target="UEzPUAAOIrF-is8g5C7q-2">
          <mxGeometry relative="1" as="geometry" />
        </mxCell>
        <mxCell id="TWgagcZdgVCgy9wzKNXQ-22" value="" style="group" vertex="1" connectable="0" parent="1">
          <mxGeometry x="189" y="526" width="143" height="124" as="geometry" />
        </mxCell>
        <mxCell id="TWgagcZdgVCgy9wzKNXQ-18" value="" style="outlineConnect=0;fontColor=#232F3E;gradientColor=none;fillColor=#BC1356;strokeColor=none;dashed=0;verticalLabelPosition=bottom;verticalAlign=top;align=center;html=1;fontSize=12;fontStyle=0;aspect=fixed;pointerEvents=1;shape=mxgraph.aws4.monitoring;" vertex="1" parent="TWgagcZdgVCgy9wzKNXQ-22">
          <mxGeometry x="14.412514050206061" width="42.81351351351351" height="31.83783783783784" as="geometry" />
        </mxCell>
        <mxCell id="TWgagcZdgVCgy9wzKNXQ-19" value="" style="outlineConnect=0;fontColor=#232F3E;gradientColor=#F34482;gradientDirection=north;fillColor=#BC1356;strokeColor=#ffffff;dashed=0;verticalLabelPosition=bottom;verticalAlign=top;align=center;html=1;fontSize=12;fontStyle=0;aspect=fixed;shape=mxgraph.aws4.resourceIcon;resIcon=mxgraph.aws4.cloudwatch;" vertex="1" parent="TWgagcZdgVCgy9wzKNXQ-22">
          <mxGeometry y="58.64864864864865" width="65.35135135135135" height="65.35135135135135" as="geometry" />
        </mxCell>
        <mxCell id="TWgagcZdgVCgy9wzKNXQ-20" value="CloudWatch &#xa;メトリクス" style="text;strokeColor=none;fillColor=none;align=center;verticalAlign=middle;rounded=0;spacing=0;" vertex="1" parent="TWgagcZdgVCgy9wzKNXQ-22">
          <mxGeometry x="35.843761708505056" y="31.83783783783784" width="107.15623829149497" height="26.81081081081081" as="geometry" />
        </mxCell>
        <mxCell id="TWgagcZdgVCgy9wzKNXQ-23" value="" style="endArrow=classic;html=1;dashed=1;" edge="1" parent="1">
          <mxGeometry width="50" height="50" relative="1" as="geometry">
            <mxPoint x="223.35313529384553" y="375" as="sourcePoint" />
            <mxPoint x="224.6759868607753" y="521.0947461480171" as="targetPoint" />
          </mxGeometry>
        </mxCell>
        <mxCell id="TWgagcZdgVCgy9wzKNXQ-27" value="" style="group" vertex="1" connectable="0" parent="1">
          <mxGeometry x="320" y="526" width="143" height="124" as="geometry" />
        </mxCell>
        <mxCell id="TWgagcZdgVCgy9wzKNXQ-28" value="" style="outlineConnect=0;fontColor=#232F3E;gradientColor=none;fillColor=#BC1356;strokeColor=none;dashed=0;verticalLabelPosition=bottom;verticalAlign=top;align=center;html=1;fontSize=12;fontStyle=0;aspect=fixed;pointerEvents=1;shape=mxgraph.aws4.monitoring;" vertex="1" parent="TWgagcZdgVCgy9wzKNXQ-27">
          <mxGeometry x="14.412514050206061" width="42.81351351351351" height="31.83783783783784" as="geometry" />
        </mxCell>
        <mxCell id="TWgagcZdgVCgy9wzKNXQ-29" value="" style="outlineConnect=0;fontColor=#232F3E;gradientColor=#F34482;gradientDirection=north;fillColor=#BC1356;strokeColor=#ffffff;dashed=0;verticalLabelPosition=bottom;verticalAlign=top;align=center;html=1;fontSize=12;fontStyle=0;aspect=fixed;shape=mxgraph.aws4.resourceIcon;resIcon=mxgraph.aws4.cloudwatch;" vertex="1" parent="TWgagcZdgVCgy9wzKNXQ-27">
          <mxGeometry y="58.64864864864865" width="65.35135135135135" height="65.35135135135135" as="geometry" />
        </mxCell>
        <mxCell id="TWgagcZdgVCgy9wzKNXQ-30" value="CloudWatch &#xa;メトリクス" style="text;strokeColor=none;fillColor=none;align=center;verticalAlign=middle;rounded=0;spacing=0;" vertex="1" parent="TWgagcZdgVCgy9wzKNXQ-27">
          <mxGeometry x="35.843761708505056" y="31.83783783783784" width="107.15623829149497" height="26.81081081081081" as="geometry" />
        </mxCell>
        <mxCell id="TWgagcZdgVCgy9wzKNXQ-31" value="" style="endArrow=classic;html=1;dashed=1;" edge="1" parent="1">
          <mxGeometry width="50" height="50" relative="1" as="geometry">
            <mxPoint x="359.1064466490111" y="314" as="sourcePoint" />
            <mxPoint x="359.6659868607753" y="519.004746148017" as="targetPoint" />
          </mxGeometry>
        </mxCell>
        <mxCell id="TWgagcZdgVCgy9wzKNXQ-32" value="" style="group" vertex="1" connectable="0" parent="1">
          <mxGeometry x="440" y="526" width="143" height="124" as="geometry" />
        </mxCell>
        <mxCell id="TWgagcZdgVCgy9wzKNXQ-33" value="" style="outlineConnect=0;fontColor=#232F3E;gradientColor=none;fillColor=#BC1356;strokeColor=none;dashed=0;verticalLabelPosition=bottom;verticalAlign=top;align=center;html=1;fontSize=12;fontStyle=0;aspect=fixed;pointerEvents=1;shape=mxgraph.aws4.monitoring;" vertex="1" parent="TWgagcZdgVCgy9wzKNXQ-32">
          <mxGeometry x="14.412514050206061" width="42.81351351351351" height="31.83783783783784" as="geometry" />
        </mxCell>
        <mxCell id="TWgagcZdgVCgy9wzKNXQ-34" value="" style="outlineConnect=0;fontColor=#232F3E;gradientColor=#F34482;gradientDirection=north;fillColor=#BC1356;strokeColor=#ffffff;dashed=0;verticalLabelPosition=bottom;verticalAlign=top;align=center;html=1;fontSize=12;fontStyle=0;aspect=fixed;shape=mxgraph.aws4.resourceIcon;resIcon=mxgraph.aws4.cloudwatch;" vertex="1" parent="TWgagcZdgVCgy9wzKNXQ-32">
          <mxGeometry y="58.64864864864865" width="65.35135135135135" height="65.35135135135135" as="geometry" />
        </mxCell>
        <mxCell id="TWgagcZdgVCgy9wzKNXQ-35" value="CloudWatch &#xa;メトリクス" style="text;strokeColor=none;fillColor=none;align=center;verticalAlign=middle;rounded=0;spacing=0;" vertex="1" parent="TWgagcZdgVCgy9wzKNXQ-32">
          <mxGeometry x="35.843761708505056" y="31.83783783783784" width="107.15623829149497" height="26.81081081081081" as="geometry" />
        </mxCell>
        <mxCell id="TWgagcZdgVCgy9wzKNXQ-36" value="" style="endArrow=classic;html=1;dashed=1;" edge="1" parent="1">
          <mxGeometry width="50" height="50" relative="1" as="geometry">
            <mxPoint x="478.4964466490111" y="317.25" as="sourcePoint" />
            <mxPoint x="479.0559868607753" y="522.2547461480171" as="targetPoint" />
          </mxGeometry>
        </mxCell>
        <mxCell id="TWgagcZdgVCgy9wzKNXQ-37" style="edgeStyle=orthogonalEdgeStyle;rounded=1;orthogonalLoop=1;jettySize=auto;html=1;exitX=0.5;exitY=1;exitDx=0;exitDy=0;dashed=1;" edge="1" parent="1">
          <mxGeometry relative="1" as="geometry">
            <mxPoint x="893" y="674" as="sourcePoint" />
            <mxPoint x="893" y="674" as="targetPoint" />
          </mxGeometry>
        </mxCell>
        <mxCell id="TWgagcZdgVCgy9wzKNXQ-38" value="" style="group" vertex="1" connectable="0" parent="1">
          <mxGeometry x="720" y="520" width="143" height="124" as="geometry" />
        </mxCell>
        <mxCell id="TWgagcZdgVCgy9wzKNXQ-39" value="" style="outlineConnect=0;fontColor=#232F3E;gradientColor=none;fillColor=#BC1356;strokeColor=none;dashed=0;verticalLabelPosition=bottom;verticalAlign=top;align=center;html=1;fontSize=12;fontStyle=0;aspect=fixed;pointerEvents=1;shape=mxgraph.aws4.monitoring;" vertex="1" parent="TWgagcZdgVCgy9wzKNXQ-38">
          <mxGeometry x="14.412514050206061" width="42.81351351351351" height="31.83783783783784" as="geometry" />
        </mxCell>
        <mxCell id="TWgagcZdgVCgy9wzKNXQ-40" value="" style="outlineConnect=0;fontColor=#232F3E;gradientColor=#F34482;gradientDirection=north;fillColor=#BC1356;strokeColor=#ffffff;dashed=0;verticalLabelPosition=bottom;verticalAlign=top;align=center;html=1;fontSize=12;fontStyle=0;aspect=fixed;shape=mxgraph.aws4.resourceIcon;resIcon=mxgraph.aws4.cloudwatch;" vertex="1" parent="TWgagcZdgVCgy9wzKNXQ-38">
          <mxGeometry y="58.64864864864865" width="65.35135135135135" height="65.35135135135135" as="geometry" />
        </mxCell>
        <mxCell id="TWgagcZdgVCgy9wzKNXQ-41" value="CloudWatch &#xa;メトリクス" style="text;strokeColor=none;fillColor=none;align=center;verticalAlign=middle;rounded=0;spacing=0;" vertex="1" parent="TWgagcZdgVCgy9wzKNXQ-38">
          <mxGeometry x="35.843761708505056" y="31.83783783783784" width="107.15623829149497" height="26.81081081081081" as="geometry" />
        </mxCell>
        <mxCell id="TWgagcZdgVCgy9wzKNXQ-42" value="" style="endArrow=classic;html=1;dashed=1;" edge="1" parent="1">
          <mxGeometry width="50" height="50" relative="1" as="geometry">
            <mxPoint x="759" y="440" as="sourcePoint" />
            <mxPoint x="759.0559868607752" y="520.0047461480171" as="targetPoint" />
          </mxGeometry>
        </mxCell>
      </root>
    </mxGraphModel>
  </diagram>
</mxfile>
